# xmcd CD database file
#
# Track frame offsets:
#	150
#	15798
#	28303
#	41602
#	52828
#	65828
#	81348
#	92777
#	109819
#	119469
#	133743
#	147796
#	163371
#	178083
#	191274
#	205385
#	220048
#	234678
#	247081
#	260060
#
# Disc length: 3640 seconds
#
# Revision: 0
# Processed by: cddbd v1.5.2PL0 Copyright (c) Steve Scherf et al.
# Submitted via: CDex 1.70beta2
#
DISCID=2c0e3614
DTITLE=Nat King Cole - 20 Great Love Songs
DYEAR=2000
DGENRE=Jazz
TTITLE0=Unforgetable
TTITLE1=Pretend
TTITLE2=Tenderly
TTITLE3=I Could Have Danced All Night
TTITLE4=I Love You For Sentimental Reasons
TTITLE5=Mona Lisa
TTITLE6=A Blossom Fell
TTITLE7=These Foolish Things (Remind Mi Of You)
TTITLE8=More
TTITLE9=When I Fall In Love
TTITLE10=It's All In The Game
TTITLE11=But Beautiful
TTITLE12=Ain't Misbehavin'
TTITLE13=The Girl From Ipanema
TTITLE14=Impossible
TTITLE15=For All We Know
TTITLE16=Stardust
TTITLE17=Arriverderci Roma
TTITLE18=There Goes My Heart
TTITLE19=Smile
EXTD=YEAR: 2000
EXTT0=
EXTT1=
EXTT2=
EXTT3=
EXTT4=
EXTT5=
EXTT6=
EXTT7=
EXTT8=
EXTT9=
EXTT10=
EXTT11=
EXTT12=
EXTT13=
EXTT14=
EXTT15=
EXTT16=
EXTT17=
EXTT18=
EXTT19=
PLAYORDER=
